# xmcd CD database file
# Copyright (C) 1997 Ti Kan
# 
# Track frame offsets:
#     150
#     12965
#     26040
#     37505
#     56465
#     69760
#     83740
#     94802
#     111040
#     125787
#     140132
# 
# Disc length: 2076 seconds
# 
# Revision: 1
# Processed by: cddbd v1.4b41PL1 Copyright (c) Steve Scherf et al.
# Submitted via: DiscPlay 4.0.3
# 
DISCID=88081a0b
DTITLE=Clinton Gregory - (If It Weren't For Country Music) I'd Go Crazy
DYEAR=1900
DGENRE=
TTITLE0=(If It Weren't For Country Music) I'd Go Crazy
TTITLE1=One Shot At A Time
TTITLE2=I'll Never Always Love You
TTITLE3=Maybe I Should Have Been Listening
TTITLE4=Heartbreak Highway
TTITLE5=Satisfy Me And I'll Satisfy You
TTITLE6=Blue Country Frame Of Mind
TTITLE7=House Of Diamonds
TTITLE8=There's Never Been A Honky Tonk
TTITLE9=Your Uncharted Mind
TTITLE10=For Crying Out Loud
EXTD=
EXTT0=
EXTT1=
EXTT2=
EXTT3=
EXTT4=
EXTT5=
EXTT6=
EXTT7=
EXTT8=
EXTT9=
EXTT10=
PLAYORDER=
